<?xml version="1.0" encoding="utf-8"?>
<!-- Generator: Adobe Illustrator 16.0.0, SVG Export Plug-In . SVG Version: 6.00 Build 0)  -->
<!DOCTYPE svg PUBLIC "-//W3C//DTD SVG 1.1//EN" "http://www.w3.org/Graphics/SVG/1.1/DTD/svg11.dtd">
<svg version="1.1" id="Layer_1" xmlns="http://www.w3.org/2000/svg" xmlns:xlink="http://www.w3.org/1999/xlink" x="0px" y="0px"
	 width="30.472px" height="26.753px" viewBox="0 0 30.472 26.753" enable-background="new 0 0 30.472 26.753" xml:space="preserve">
<g id="ukSmNi.tif">
	<g>
		<path fill-rule="evenodd" clip-rule="evenodd" fill="#FFFFFF" stroke="#414042" stroke-width="2" stroke-miterlimit="10" d="
			M15.257,4.023c1.144-1.331,2.521-2.197,4.175-2.63c4.502-1.18,9.196,1.968,9.786,6.566c0.334,2.619-0.48,4.915-1.98,7.011
			c-1.578,2.208-3.52,4.08-5.633,5.756c-1.95,1.548-4,2.971-6.001,4.455c-0.236,0.176-0.416,0.188-0.675,0.017
			c-3.432-2.278-6.703-4.755-9.571-7.727c-1.341-1.39-2.594-2.865-3.348-4.672C0.918,10.181,0.812,7.575,2.304,5.05
			c2.72-4.602,9.117-5.243,12.72-1.282C15.089,3.84,15.155,3.912,15.257,4.023z"/>
	</g>
</g>
</svg>
